<svg version="1.0" xmlns="http://www.w3.org/2000/svg" width="682.667" height="682.667" viewBox="0 0 512 512"><path d="M238.5 1.6c-8.2 1.9-8.5 2-13 3.9-18 7.5-30.2 17.2-40.2 32-5.9 8.7-11.3 21.3-12.8 30-.2 1.6-.7 4.1-1 5.5-.8 3.2-.8 21.8 0 23 .5.8-4.8 4-6.9 4-.6 0-3.4 1.2-6.1 2.6-21.7 11.6-36.8 29.4-43.9 51.9-2.5 7.8-3.1 13.1-3.1 25.5 0 14.2 2.2 23.9 8.1 35.8l4.3 8.7-4.4 4.3c-6.1 6.1-7.9 10.3-8 18.7 0 13.7 8.9 23.7 22.9 25.4l5 .6 3.9 10c2.1 5.5 4.5 11.4 5.3 13.2.8 1.7 1.4 3.4 1.4 3.8 0 .4.6 2.1 1.4 3.8.8 1.8 9 22.3 18.2 45.7 20.7 52.7 19.4 49.3 24.4 62.5 2.3 6 4.8 12.3 5.5 14 .7 1.6 4.5 11.3 8.5 21.5 20.3 51.8 18.7 48.5 25.3 54.7 7.1 6.6 12.5 8.7 22.7 8.8 7.3 0 9.3-.4 14-2.7 3-1.5 7.6-4.9 10.2-7.5 5.2-5.4 3.1-.3 51.3-123.3 10.9-27.7 24.6-62.7 34.1-86.6 3.5-8.9 6.4-16.6 6.4-17.1 0-.6 2.5-1.3 5.6-1.6 12.9-1.3 21.8-10.2 23.1-23.2 1.4-13.5-8.8-25.8-22.4-27.2-2.9-.3-5.3-.8-5.3-1 0-.2 1.1-2.6 2.5-5.3 1.4-2.7 3.7-8.8 5.2-13.7 2.3-7.7 2.6-10.5 2.7-22.8 0-15.4-1.6-23.4-7.3-36-6.3-13.9-17.7-27.2-30.2-35.3l-6.6-4.2.9-5.3c.9-5.5 1.2-24.2.4-25.5-.2-.4-.7-2.7-1.1-5.1-.8-5.3-4.8-16.7-8-22.8-11-20.5-29.9-35.8-52.8-42.4-9.3-2.7-31.2-3.4-40.2-1.3z"/></svg>