<?xml version="1.0" standalone="no"?>
<!DOCTYPE svg PUBLIC "-//W3C//DTD SVG 20010904//EN"
 "http://www.w3.org/TR/2001/REC-SVG-20010904/DTD/svg10.dtd">
<svg version="1.0" xmlns="http://www.w3.org/2000/svg"
 width="512.000000pt" height="512.000000pt" viewBox="0 0 512.000000 512.000000"
 preserveAspectRatio="xMidYMid meet">
<metadata>
Created by potrace 1.14, written by Peter Selinger 2001-2017
</metadata>
<g transform="translate(0.000000,512.000000) scale(0.100000,-0.100000)"
fill="#000000" stroke="none">
<path d="M2385 5104 c-82 -19 -85 -20 -130 -39 -180 -75 -302 -172 -402 -320
-59 -87 -113 -213 -128 -300 -2 -16 -7 -41 -10 -55 -8 -32 -8 -218 0 -230 5
-8 -48 -40 -69 -40 -6 0 -34 -12 -61 -26 -217 -116 -368 -294 -439 -519 -25
-78 -31 -131 -31 -255 0 -142 22 -239 81 -358 l43 -87 -44 -43 c-61 -61 -79
-103 -80 -187 0 -137 89 -237 229 -254 l50 -6 39 -100 c21 -55 45 -114 53
-132 8 -17 14 -34 14 -38 0 -4 6 -21 14 -38 8 -18 90 -223 182 -457 207 -527
194 -493 244 -625 23 -60 48 -123 55 -140 7 -16 45 -113 85 -215 203 -518 187
-485 253 -547 71 -66 125 -87 227 -88 73 0 93 4 140 27 30 15 76 49 102 75 52
54 31 3 513 1233 109 277 246 627 341 866 35 89 64 166 64 171 0 6 25 13 56
16 129 13 218 102 231 232 14 135 -88 258 -224 272 -29 3 -53 8 -53 10 0 2 11
26 25 53 14 27 37 88 52 137 23 77 26 105 27 228 0 154 -16 234 -73 360 -63
139 -177 272 -302 353 l-66 42 9 53 c9 55 12 242 4 255 -2 4 -7 27 -11 51 -8
53 -48 167 -80 228 -110 205 -299 358 -528 424 -93 27 -312 34 -402 13z"/>
</g>
</svg>
